<svg id="Layer_2" data-name="Layer 2" xmlns="http://www.w3.org/2000/svg" viewBox="0 0 1372.88 908.71"><defs><style>.cls-1{fill:#fff8f2;}</style></defs><path class="cls-1" d="M467.42,908.22c-225.38,0-405-81.93-454-228.1C-59.43,463,183.18,185,554.24,60.52s732.2-49.11,805.11,168.06S1189.61,723.7,818.54,848.19c-121.28,40.68-241.58,60-351,60ZM905.75,5.92C796.75,5.92,677,25.19,556,65.77,187.88,189.26-53.14,464.06,18.72,678.35s429.88,288,798,164.54S1425.89,444.56,1354,230.35C1305.74,86.52,1128.47,6,905.78,6Z" transform="translate(0.05 -0.02)"/><path class="cls-1" d="M467.48,908.72h-.06c-112.65,0-214.09-20.5-293.36-59.28C92.35,809.46,36.64,751,13,680.28-4.89,627.11-4.36,569.5,14.53,509.06,32.77,450.72,67.24,392.24,117,335.24S229.2,225.65,302.68,178.88c76.09-48.42,160.68-88.4,251.4-118.83C675.4,19.36,795.71,0,905.21,0c225.63,0,405.48,82,454.61,228.4,17.86,53.18,17.33,110.79-1.55,171.24C1340,458,1305.57,516.47,1255.82,573.47S1143.6,683.06,1070.11,729.82C994,778.24,909.43,818.23,818.7,848.67c-117.05,39.26-238.46,60-351.1,60Z" transform="translate(0.05 -0.02)"/></svg>