<?xml version="1.0" encoding="utf-8"?>
<!-- Generator: Adobe Illustrator 25.2.1, SVG Export Plug-In . SVG Version: 6.00 Build 0)  -->
<svg version="1.1" id="Layer_1" xmlns="http://www.w3.org/2000/svg" xmlns:xlink="http://www.w3.org/1999/xlink" x="0px" y="0px"
	 viewBox="0 0 1372.8 908.7" style="enable-background:new 0 0 1372.8 908.7;" xml:space="preserve">
<style type="text/css">
	.st0{fill:#0D1112;stroke:#0D1112;stroke-miterlimit:10;}
</style>
<path class="st0" d="M467.4,908.2c-225.4,0-405-81.9-454-228.1C-59.4,463,183.2,185,554.2,60.5s732.2-49.1,805.1,168.1
	s-169.7,495.1-540.8,619.6c-121.3,40.7-241.6,60-351,60L467.4,908.2z M905.8,5.9C796.8,5.9,677,25.2,556,65.8
	C187.9,189.3-53.1,464.1,18.7,678.4s429.9,288,798,164.5s609.2-398.3,537.3-612.5C1305.7,86.5,1128.5,6,905.8,5.9L905.8,5.9z"/>
</svg>
