<?xml version="1.0" encoding="utf-8"?>
<!-- Generator: Adobe Illustrator 25.2.1, SVG Export Plug-In . SVG Version: 6.00 Build 0)  -->
<svg version="1.1" id="Layer_2_1_" xmlns="http://www.w3.org/2000/svg" xmlns:xlink="http://www.w3.org/1999/xlink" x="0px" y="0px"
	 viewBox="0 0 1372.9 908.7" style="enable-background:new 0 0 1372.9 908.7;" xml:space="preserve">
<style type="text/css">
	.st0{fill:#FFF8F2;}
	.st1{fill:#B96D49;}
</style>
<path class="st0" d="M467.5,908.2c-225.4,0-405-81.9-454-228.1C-59.4,463,183.2,185,554.3,60.5s732.2-49.1,805.1,168.1
	s-169.7,495.1-540.8,619.6c-121.3,40.7-241.6,60-351,60L467.5,908.2z M905.8,5.9C796.8,5.9,677,25.2,556,65.8
	C187.9,189.2-53.1,464,18.8,678.3s429.9,288,798,164.5s609.2-398.3,537.3-612.5C1305.8,86.5,1128.5,6,905.8,5.9L905.8,5.9z"/>
<path class="st1" d="M467.5,908.7L467.5,908.7c-112.7,0-214.1-20.5-293.4-59.3C92.4,809.4,36.7,751,13.1,680.3
	C-4.8,627.1-4.3,569.5,14.6,509c18.2-58.3,52.7-116.8,102.5-173.8s112.2-109.6,185.7-156.4C378.8,130.4,463.4,90.5,554.1,60
	C675.5,19.3,795.8,0,905.3,0c225.6,0,405.5,82,454.6,228.4c17.9,53.2,17.3,110.8-1.6,171.2c-18.3,58.4-52.7,116.8-102.5,173.8
	S1143.7,683,1070.2,729.8c-76.1,48.4-160.7,88.4-251.4,118.8c-117,39.3-238.5,60-351.1,60L467.5,908.7z"/>
</svg>
